# xmcd CD database file
#
# Track frame offsets:
#	150
#	41240
#	83007
#	106735
#	130623
#	181491
#	224238
#
# Disc length: 3705 seconds
#
# Revision: 0
# Processed by: cddbd v1.5.1PL0 Copyright (c) Steve Scherf et al.
# Submitted via: CDex 1.51
#
DISCID=5f0e7707
DTITLE=McCoy Tyner - Best Of Big Band
DYEAR=1993
DGENRE=Jazz
TTITLE0=Passion Dance
TTITLE1=Let It Go
TTITLE2=High Priest
TTITLE3=Angel Eyes
TTITLE4=Peresina
TTITLE5=Blues On The Corner
TTITLE6=Fly With The Wind
EXTD=YEAR: 1993
EXTT0=
EXTT1=
EXTT2=
EXTT3=
EXTT4=
EXTT5=
EXTT6=
PLAYORDER=
